<?xml version="1.0" encoding="utf-8"?>
<!-- Generator: Adobe Illustrator 23.0.6, SVG Export Plug-In . SVG Version: 6.00 Build 0)  -->
<svg version="1.1" id="Capa_1" xmlns="http://www.w3.org/2000/svg" xmlns:xlink="http://www.w3.org/1999/xlink" x="0px" y="0px"
	 viewBox="0 0 319.9 270.8" style="enable-background:new 0 0 319.9 270.8;" xml:space="preserve">
<style type="text/css">
	.st0{fill:#070308;}
</style>
<g>
	<g>
		
			<rect x="1.7" y="155.9" transform="matrix(1 -4.348776e-03 4.348776e-03 1 -0.7123 1.363597e-02)" class="st0" width="2.2" height="15.7"/>
		<polyline class="st0" points="35.5,167.4 26,155.8 24.5,155.9 24.6,171.6 26.7,171.6 26.6,159.9 36.1,171.5 37.7,171.5 
			37.6,155.8 35.5,155.8 		"/>
		<polyline class="st0" points="64,167.8 58.6,155.7 56.2,155.7 63.4,171.5 64.7,171.5 71.7,155.7 69.4,155.7 		"/>
		<polyline class="st0" points="92.5,164.7 99.9,164.7 99.9,162.6 92.5,162.6 92.5,157.7 101.2,157.7 101.1,155.5 90.3,155.6 
			90.4,171.3 101.6,171.3 101.6,169.2 92.5,169.2 		"/>
		<path class="st0" d="M133.1,160.7c0-3.4-2.1-5.3-5.8-5.2l-6,0l0.1,15.7l2.2,0l0-5l3.6,0c0.3,0,0.5,0,0.8,0l3.7,5l2.7,0l-4.1-5.5
			C132.1,164.8,133.1,163.1,133.1,160.7 M123.5,164.1l0-6.5l3.8,0c3.3,0,3.7,1.8,3.7,3.1c0,2.2-1.3,3.4-3.9,3.4L123.5,164.1z"/>
		<path class="st0" d="M158.5,162c-3-0.6-4-1.2-4-2.5c0-1.3,1.3-2.2,3.4-2.2c1.6,0,3.2,0.3,4.3,0.9l0.6,0.3l1-1.9l-0.6-0.3
			c-1.3-0.7-3.4-1.2-5.3-1.2c-3.4,0-5.5,1.7-5.5,4.4c0,3.4,3.1,4,5.6,4.6l0.1,0c2.5,0.5,3.9,0.9,3.9,2.5c0,2-1.9,2.4-3.6,2.4
			c-1.9,0-3.4-0.3-4.8-1.2l-0.7-0.4l-0.9,2.1l0.6,0.3c1.8,0.9,3.5,1.3,5.9,1.3c3.6,0,5.7-1.7,5.7-4.6
			C164.2,163.1,160.9,162.5,158.5,162"/>
		
			<rect x="184" y="155.2" transform="matrix(1 -4.024724e-03 4.024724e-03 1 -0.6548 0.746)" class="st0" width="2.2" height="15.7"/>
		<path class="st0" d="M214.2,154.9c-4.9,0-8.2,3.3-8.2,8c0,4.8,3.3,8,8.2,8c4.9,0,8.2-3.2,8.2-8
			C222.4,158.1,219.1,154.9,214.2,154.9 M214.3,168.8c-3.7,0-6-2.3-6.1-5.8c0-3.6,2.3-5.9,6-5.9c3.7,0,6,2.3,6,5.8
			C220.3,166.5,217.9,168.8,214.3,168.8"/>
		<polyline class="st0" points="253.4,166.5 243.9,155 242.3,155 242.4,170.7 244.5,170.7 244.5,159 254,170.6 255.5,170.6 
			255.5,154.9 253.3,154.9 		"/>
		<polyline class="st0" points="278.3,163.9 285.7,163.9 285.7,161.8 278.3,161.9 278.3,156.9 286.9,156.9 286.9,154.8 276.1,154.8 
			276.2,170.5 287.4,170.5 287.4,168.4 278.3,168.4 		"/>
		<path class="st0" d="M312.5,161.4c-3-0.6-4-1.2-4-2.5c0-1.3,1.3-2.2,3.4-2.2c1.6,0,3.2,0.3,4.3,0.9l0.6,0.3l1-1.9l-0.6-0.3
			c-1.3-0.7-3.4-1.2-5.3-1.2c-3.4,0-5.5,1.7-5.5,4.4c0,3.4,3.1,4,5.6,4.6l0.1,0c2.5,0.5,3.9,0.9,3.9,2.5c0,2-1.9,2.4-3.6,2.4
			c-1.9,0-3.4-0.3-4.8-1.2l-0.7-0.4l-0.9,2.1l0.6,0.3c1.8,0.9,3.5,1.3,5.9,1.3c3.6,0,5.7-1.7,5.7-4.6
			C318.2,162.5,314.9,161.9,312.5,161.4"/>
	</g>
	<g>
		<polyline class="st0" points="25.8,215.3 5,186.5 0,186.5 0.2,236.6 10.1,236.6 10,209 24,228.2 27.7,228.1 41.6,208.8 
			41.7,236.5 51.6,236.4 51.4,186.3 46.2,186.4 		"/>
		<path class="st0" d="M80.2,186.2l-23.5,50.3l10.7,0l4.2-9.5l22.8-0.1l4.3,9.5l10.8,0l-23.9-50.1 M74.9,218.6l8-19l8.2,18.9
			L74.9,218.6z"/>
		<path class="st0" d="M157.2,236l-11.9-16.1c6.5-2.7,10-8.1,10-16.1c0-11.6-7.1-17.9-20.3-17.8l-20.3,0.1l0.2,50.1l10,0l-0.1-14.2
			l10.3,0l10,14.2 M133.4,213.3l-8.7,0l-0.1-18.6l9.5,0c7.2,0,10.6,3.2,10.6,9.5C144.8,209.5,141.2,213.3,133.4,213.3"/>
		<polyline class="st0" points="188.7,214.6 167.9,185.9 162.9,185.9 163.1,236 173,235.9 172.9,208.4 186.8,227.5 190.6,227.5 
			204.4,208.2 204.5,235.8 214.5,235.8 214.3,185.7 209.1,185.7 		"/>
		<path class="st0" d="M248.6,184.6c-16.3,0.1-26.5,10.9-26.5,26.2c0.1,15.7,10.9,26,26.7,25.9c16.3-0.1,26.6-10.9,26.5-26.1
			C275.3,194.8,264.4,184.5,248.6,184.6 M248.8,227.2c-9.9,0-16.2-6.9-16.2-16.6c0-10.2,6.6-16.7,16.1-16.8
			c9.9,0,16.2,6.9,16.3,16.6C264.9,220.6,258.3,227.2,248.8,227.2"/>
		<polyline class="st0" points="293.3,226.4 293.1,185.4 283,185.4 283.2,235.5 319.9,235.3 319.9,226.3 		"/>
	</g>
	<g>
		<path class="st0" d="M128.7,262.3c-2.2-0.4-3.4-0.8-3.4-1.9c0-0.9,0.8-1.5,2.4-1.5c1.5,0,2.9,0.4,4.1,0.9l1.1-2.3
			c-1.4-0.7-3.1-1.1-5.3-1.1c-3.5,0-5.3,1.7-5.2,4.3c0,2.8,2.1,3.7,5.2,4.3c1.9,0.4,2.9,0.7,3,1.8c0,1.1-0.9,1.7-2.5,1.7
			c-1.7,0-3.2-0.4-4.8-1.2l-1,2.4c1.9,0.9,3.5,1.3,6,1.3c3.5,0,5.3-1.5,5.2-4.4C133.5,263.7,131.5,262.8,128.7,262.3"/>
		<path class="st0" d="M142.9,267.1c-0.9,0-1.7,0.7-1.7,1.7c0,0.9,0.8,1.7,1.7,1.7c0.9,0,1.6-0.8,1.6-1.7
			C144.6,267.8,143.8,267.1,142.9,267.1"/>
		<path class="st0" d="M158.9,256.4l-6.6,14l3,0l1.2-2.7l6.4,0l1.2,2.7l3,0l-6.7-14 M157.4,265.5l2.2-5.3l2.3,5.3L157.4,265.5z"/>
		<path class="st0" d="M176.5,267c-0.9,0-1.7,0.7-1.7,1.7c0,0.9,0.8,1.7,1.7,1.7c0.9,0,1.6-0.8,1.6-1.7
			C178.2,267.7,177.4,267,176.5,267"/>
		<path class="st0" d="M192.9,262c-2.1-0.4-3.4-0.8-3.4-1.9c0-0.9,0.8-1.5,2.4-1.5c1.5,0,2.9,0.4,4.1,0.9l1.1-2.3
			c-1.4-0.6-3.1-1.1-5.3-1.1c-3.5,0-5.3,1.7-5.2,4.3c0,2.8,2.1,3.7,5.2,4.3c1.9,0.4,2.9,0.7,3,1.8c0,1.1-0.9,1.7-2.5,1.7
			c-1.7,0-3.2-0.4-4.8-1.2l-1,2.4c1.9,0.9,3.5,1.3,6,1.3c3.5,0,5.3-1.5,5.2-4.4C197.6,263.4,195.7,262.5,192.9,262"/>
	</g>
	<g>
		
			<rect x="176.7" y="107" transform="matrix(1 -4.040632e-03 4.040632e-03 1 -0.4388 0.7503)" class="st0" width="17.5" height="3.9"/>
		
			<rect x="152.8" y="107.1" transform="matrix(1 -4.002181e-03 4.002181e-03 1 -0.4352 0.6474)" class="st0" width="17.5" height="3.9"/>
		<path class="st0" d="M233,0l-3.9,0v0L86.4,0.6l0.4,110.6l37.8,0l0.1,15.5l-0.1,3.9l108.9-0.4L233,3.9h0h0L233,0L233,0 M124.5,87.9
			l-8.1,0l-0.3-64.5l8.1,0L124.5,87.9z M229.1,3.9L229.1,3.9l0.5,122.3l-101,0.4l-0.1-15.5l17.8-0.1l0-3.9l-17.8,0.1l-0.1-15.5
			l22.8-0.1L151,28.5L180.4,76l-9.6,15.9l23.6-0.1L184.7,76l28.9-47.7l0.2,78.6l-13.2,0.1l0,3.9l17.1-0.1l-0.4-91.7l-2.6,0
			l-32.3,53.1l-32.8-52.9l-2.6,0l0.3,68.4l-19,0.1l-0.3-68.4l-16,0.1l0.3,71.9h0l0,0.4l12,0l0.1,15.5l-33.9,0.1L90.3,4.5L229.1,3.9z
			 M182.6,79.6l5,8.2l-9.9,0L182.6,79.6z"/>
	</g>
</g>
</svg>
