<?xml version="1.0" encoding="utf-8"?>
<!-- Generator: Adobe Illustrator 23.0.6, SVG Export Plug-In . SVG Version: 6.00 Build 0)  -->
<svg version="1.1" id="Capa_1" xmlns="http://www.w3.org/2000/svg" xmlns:xlink="http://www.w3.org/1999/xlink" x="0px" y="0px"
	 viewBox="0 0 212.5 56.2" style="enable-background:new 0 0 212.5 56.2;" xml:space="preserve">
<style type="text/css">
	.st0{fill:#070308;}
</style>
<g>
	<rect x="38.9" y="46" transform="matrix(1 -4.040632e-03 4.040632e-03 1 -0.1891 0.1726)" class="st0" width="7.5" height="1.7"/>
	
		<rect x="28.6" y="46.1" transform="matrix(1 -4.002181e-03 4.002181e-03 1 -0.1875 0.1298)" class="st0" width="7.5" height="1.7"/>
	<path class="st0" d="M63.1,0l-1.7,0v0L0,0.3l0.2,47.6l16.3,0l0,6.7l0,1.7L63.3,56L63.1,1.7h0h0L63.1,0L63.1,0 M16.4,37.8l-3.5,0
		l-0.1-27.7l3.5,0L16.4,37.8z M61.4,1.7L61.4,1.7l0.2,52.6l-43.5,0.2l0-6.7l7.7,0l0-1.7l-7.7,0l0-6.7l9.8,0l-0.1-27.2l12.6,20.4
		l-4.1,6.8l10.2,0l-4.2-6.8l12.4-20.5L54.8,46l-5.7,0l0,1.7l7.4,0L56.4,8.2l-1.1,0L41.4,31.1L27.3,8.4l-1.1,0l0.1,29.4l-8.2,0
		L18,8.4l-6.9,0l0.1,30.9h0l0,0.2l5.2,0l0,6.7L1.9,46.2L1.7,1.9L61.4,1.7z M41.4,34.2l2.2,3.5l-4.3,0L41.4,34.2z"/>
	
		<rect x="75.5" y="3.5" transform="matrix(1 -4.348776e-03 4.348776e-03 1 -2.907991e-02 0.3305)" class="st0" width="0.9" height="6.8"/>
	<polyline class="st0" points="90.1,8.4 86,3.4 85.3,3.4 85.4,10.2 86.3,10.2 86.3,5.2 90.4,10.2 91,10.2 91,3.4 90.1,3.4 	"/>
	<polyline class="st0" points="102.3,8.6 100,3.4 99,3.4 102.1,10.2 102.6,10.2 105.7,3.4 104.6,3.4 	"/>
	<polyline class="st0" points="114.6,7.2 117.8,7.2 117.8,6.3 114.6,6.3 114.6,4.2 118.3,4.2 118.3,3.3 113.7,3.3 113.7,10.1 
		118.5,10.1 118.5,9.2 114.6,9.2 	"/>
	<path class="st0" d="M132.1,5.5c0-1.5-0.9-2.3-2.5-2.3l-2.6,0l0,6.8l0.9,0l0-2.1l1.5,0c0.1,0,0.2,0,0.3,0l1.6,2.1l1.2,0l-1.8-2.4
		C131.6,7.3,132.1,6.5,132.1,5.5 M127.9,7l0-2.8l1.6,0c1.4,0,1.6,0.8,1.6,1.4c0,1-0.6,1.5-1.7,1.5L127.9,7z"/>
	<path class="st0" d="M143,6.1c-1.3-0.3-1.7-0.5-1.7-1.1c0-0.6,0.6-0.9,1.4-0.9c0.7,0,1.4,0.1,1.9,0.4l0.3,0.1l0.4-0.8L145,3.6
		c-0.6-0.3-1.5-0.5-2.3-0.5c-1.4,0-2.4,0.7-2.4,1.9c0,1.4,1.3,1.7,2.4,2l0,0c1.1,0.2,1.7,0.4,1.7,1.1c0,0.9-0.8,1-1.5,1.1
		c-0.8,0-1.5-0.1-2.1-0.5l-0.3-0.2l-0.4,0.9l0.2,0.1c0.8,0.4,1.5,0.6,2.5,0.6c1.5,0,2.5-0.7,2.4-2C145.5,6.6,144,6.3,143,6.1"/>
	
		<rect x="153.9" y="3.2" transform="matrix(1 -4.024724e-03 4.024724e-03 1 -2.505292e-02 0.6215)" class="st0" width="0.9" height="6.8"/>
	<path class="st0" d="M167,3c-2.1,0-3.5,1.4-3.5,3.5c0,2.1,1.4,3.4,3.5,3.4c2.1,0,3.5-1.4,3.5-3.4C170.5,4.4,169.1,3,167,3 M167,9
		c-1.6,0-2.6-1-2.6-2.5c0-1.5,1-2.5,2.6-2.5c1.6,0,2.6,1,2.6,2.5C169.6,8,168.6,9,167,9"/>
	<polyline class="st0" points="183.8,8 179.7,3.1 179.1,3.1 179.1,9.8 180,9.8 180,4.8 184.1,9.8 184.7,9.8 184.7,3 183.8,3 	"/>
	<polyline class="st0" points="194.5,6.9 197.7,6.9 197.7,6 194.5,6 194.5,3.9 198.2,3.9 198.2,3 193.6,3 193.6,9.8 198.4,9.7 
		198.4,8.8 194.5,8.8 	"/>
	<path class="st0" d="M209.3,5.8c-1.3-0.3-1.7-0.5-1.7-1.1c0-0.6,0.6-0.9,1.4-0.9c0.7,0,1.4,0.1,1.9,0.4l0.3,0.1l0.4-0.8l-0.3-0.1
		c-0.6-0.3-1.5-0.5-2.3-0.5c-1.4,0-2.4,0.7-2.4,1.9c0,1.4,1.3,1.7,2.4,2l0,0c1.1,0.2,1.7,0.4,1.7,1.1c0,0.9-0.8,1-1.5,1.1
		c-0.8,0-1.5-0.1-2.1-0.5l-0.3-0.2L206.5,9l0.2,0.1c0.8,0.4,1.5,0.6,2.5,0.6c1.5,0,2.5-0.7,2.4-2C211.7,6.3,210.3,6,209.3,5.8"/>
	<polyline class="st0" points="86,29 77.1,16.6 74.9,16.6 75,38.2 79.3,38.2 79.2,26.3 85.2,34.5 86.8,34.5 92.8,26.2 92.8,38.1 
		97.1,38.1 97,16.6 94.8,16.6 	"/>
	<path class="st0" d="M109.4,16.5L99.3,38.1l4.6,0l1.8-4.1l9.8,0l1.8,4.1l4.6,0l-10.3-21.5 M107.1,30.4l3.5-8.2l3.5,8.1L107.1,30.4z
		"/>
	<path class="st0" d="M142.5,37.9l-5.1-6.9c2.8-1.1,4.3-3.5,4.3-6.9c0-5-3.1-7.7-8.7-7.7l-8.7,0l0.1,21.5l4.3,0l0-6.1l4.4,0l4.3,6.1
		 M132.3,28.1l-3.7,0l0-8l4.1,0c3.1,0,4.6,1.4,4.6,4.1C137.2,26.5,135.6,28.1,132.3,28.1"/>
	<polyline class="st0" points="156.1,28.7 147.1,16.3 145,16.4 145,37.9 149.3,37.9 149.3,26 155.3,34.3 156.9,34.2 162.8,25.9 
		162.9,37.8 167.2,37.8 167.1,16.3 164.8,16.3 	"/>
	<path class="st0" d="M181.8,15.8c-7,0-11.4,4.7-11.4,11.3c0,6.8,4.7,11.2,11.5,11.1c7,0,11.4-4.7,11.4-11.2
		C193.3,20.2,188.6,15.8,181.8,15.8 M181.9,34.1c-4.2,0-6.9-3-7-7.1c0-4.4,2.8-7.2,6.9-7.2c4.3,0,7,3,7,7.2
		C188.9,31.3,186,34.1,181.9,34.1"/>
	<polyline class="st0" points="201.1,33.8 201,16.1 196.7,16.1 196.7,37.7 212.5,37.6 212.5,33.8 	"/>
	<path class="st0" d="M130.4,49.2c-0.9-0.2-1.5-0.3-1.5-0.8c0-0.4,0.3-0.7,1-0.7c0.7,0,1.3,0.2,1.8,0.4l0.5-1
		c-0.6-0.3-1.4-0.5-2.3-0.5c-1.5,0-2.3,0.7-2.3,1.8c0,1.2,0.9,1.6,2.2,1.8c0.8,0.2,1.3,0.3,1.3,0.8c0,0.5-0.4,0.7-1.1,0.7
		c-0.7,0-1.4-0.2-2.1-0.5l-0.4,1c0.8,0.4,1.5,0.5,2.6,0.5c1.5,0,2.3-0.7,2.3-1.9C132.4,49.8,131.5,49.4,130.4,49.2"/>
	<path class="st0" d="M136.5,51.3c-0.4,0-0.7,0.3-0.7,0.7c0,0.4,0.3,0.7,0.7,0.7c0.4,0,0.7-0.3,0.7-0.7
		C137.2,51.6,136.9,51.3,136.5,51.3"/>
	<path class="st0" d="M143.3,46.7l-2.8,6l1.3,0l0.5-1.1l2.7,0l0.5,1.1l1.3,0l-2.9-6 M142.7,50.6l1-2.3l1,2.3L142.7,50.6z"/>
	<path class="st0" d="M150.9,51.2c-0.4,0-0.7,0.3-0.7,0.7c0,0.4,0.3,0.7,0.7,0.7c0.4,0,0.7-0.3,0.7-0.7
		C151.6,51.6,151.3,51.2,150.9,51.2"/>
	<path class="st0" d="M158,49.1c-0.9-0.2-1.5-0.3-1.5-0.8c0-0.4,0.3-0.7,1-0.7c0.7,0,1.3,0.2,1.8,0.4l0.5-1
		c-0.6-0.3-1.4-0.5-2.3-0.5c-1.5,0-2.3,0.7-2.3,1.8c0,1.2,0.9,1.6,2.2,1.8c0.8,0.2,1.3,0.3,1.3,0.8c0,0.5-0.4,0.7-1.1,0.7
		c-0.7,0-1.4-0.2-2.1-0.5l-0.4,1c0.8,0.4,1.5,0.5,2.6,0.5c1.5,0,2.3-0.7,2.3-1.9C160,49.7,159.2,49.3,158,49.1"/>
</g>
</svg>
