<?xml version="1.0" encoding="utf-8"?>
<!-- Generator: Adobe Illustrator 23.0.6, SVG Export Plug-In . SVG Version: 6.00 Build 0)  -->
<svg version="1.1" id="Capa_1" xmlns="http://www.w3.org/2000/svg" xmlns:xlink="http://www.w3.org/1999/xlink" x="0px" y="0px"
	 viewBox="0 0 150 39.7" style="enable-background:new 0 0 150 39.7;" xml:space="preserve">
<style type="text/css">
	.st0{fill:#FFFFFF;}
</style>
<g>
	
		<rect x="27.4" y="32.5" transform="matrix(1 -4.040632e-03 4.040632e-03 1 -0.1335 0.1219)" class="st0" width="5.3" height="1.2"/>
	
		<rect x="20.2" y="32.5" transform="matrix(1 -4.002181e-03 4.002181e-03 1 -0.1324 9.159923e-02)" class="st0" width="5.3" height="1.2"/>
	<path class="st0" d="M44.5,0l-1.2,0v0L0,0.2l0.1,33.6l11.5,0l0,4.7l0,1.2l33.1-0.1L44.5,1.2h0h0L44.5,0L44.5,0 M11.6,26.7l-2.5,0
		L9,7.1l2.5,0L11.6,26.7z M43.3,1.2L43.3,1.2l0.1,37.1l-30.7,0.1l0-4.7l5.4,0l0-1.2l-5.4,0l0-4.7l6.9,0L19.6,8.7l8.9,14.4l-2.9,4.8
		l7.2,0l-2.9-4.8l8.8-14.5l0.1,23.9l-4,0l0,1.2l5.2,0L39.8,5.8l-0.8,0l-9.8,16.1l-10-16.1l-0.8,0l0.1,20.8l-5.8,0L12.7,5.9l-4.8,0
		l0.1,21.8h0l0,0.1l3.7,0l0,4.7l-10.3,0L1.2,1.4L43.3,1.2z M29.2,24.2l1.5,2.5l-3,0L29.2,24.2z"/>
	
		<rect x="53.3" y="2.5" transform="matrix(1 -4.348776e-03 4.348776e-03 1 -2.052615e-02 0.2333)" class="st0" width="0.7" height="4.8"/>
	<polyline class="st0" points="63.6,5.9 60.7,2.4 60.2,2.4 60.3,7.2 60.9,7.2 60.9,3.7 63.8,7.2 64.2,7.2 64.2,2.4 63.6,2.4 	"/>
	<polyline class="st0" points="72.2,6.1 70.6,2.4 69.9,2.4 72,7.2 72.4,7.2 74.6,2.4 73.9,2.4 	"/>
	<polyline class="st0" points="80.9,5.1 83.1,5.1 83.1,4.5 80.9,4.5 80.9,3 83.5,3 83.5,2.3 80.2,2.3 80.2,7.1 83.7,7.1 83.7,6.5 
		80.9,6.5 	"/>
	<path class="st0" d="M93.2,3.9c0-1-0.6-1.6-1.8-1.6l-1.8,0l0,4.8l0.7,0l0-1.5l1.1,0c0.1,0,0.2,0,0.2,0l1.1,1.5l0.8,0l-1.2-1.7
		C92.9,5.1,93.2,4.6,93.2,3.9 M90.3,4.9l0-2l1.2,0c1,0,1.1,0.5,1.1,1c0,0.7-0.4,1-1.2,1L90.3,4.9z"/>
	<path class="st0" d="M100.9,4.3c-0.9-0.2-1.2-0.4-1.2-0.8c0-0.4,0.4-0.7,1-0.7c0.5,0,1,0.1,1.3,0.3l0.2,0.1l0.3-0.6l-0.2-0.1
		c-0.4-0.2-1-0.4-1.6-0.4c-1,0-1.7,0.5-1.7,1.3c0,1,1,1.2,1.7,1.4l0,0c0.8,0.2,1.2,0.3,1.2,0.7c0,0.6-0.6,0.7-1.1,0.7
		c-0.6,0-1-0.1-1.5-0.4l-0.2-0.1L99,6.6l0.2,0.1c0.5,0.3,1.1,0.4,1.8,0.4c1.1,0,1.7-0.5,1.7-1.4C102.7,4.6,101.7,4.4,100.9,4.3"/>
	
		<rect x="108.7" y="2.2" transform="matrix(1 -4.024724e-03 4.024724e-03 1 -1.768368e-02 0.4387)" class="st0" width="0.7" height="4.8"/>
	<path class="st0" d="M117.8,2.1c-1.5,0-2.5,1-2.5,2.4c0,1.4,1,2.4,2.5,2.4c1.5,0,2.5-1,2.5-2.4C120.3,3.1,119.3,2.1,117.8,2.1
		 M117.9,6.4c-1.1,0-1.8-0.7-1.8-1.8c0-1.1,0.7-1.8,1.8-1.8c1.1,0,1.8,0.7,1.8,1.8C119.7,5.6,119,6.3,117.9,6.4"/>
	<polyline class="st0" points="129.7,5.7 126.9,2.2 126.4,2.2 126.4,6.9 127.1,6.9 127,3.4 129.9,6.9 130.4,6.9 130.4,2.1 
		129.7,2.1 	"/>
	<polyline class="st0" points="137.3,4.9 139.6,4.9 139.6,4.2 137.3,4.2 137.3,2.8 139.9,2.7 139.9,2.1 136.6,2.1 136.7,6.9 
		140.1,6.9 140.1,6.2 137.3,6.2 	"/>
	<path class="st0" d="M147.7,4.1c-0.9-0.2-1.2-0.4-1.2-0.8c0-0.4,0.4-0.7,1-0.7c0.5,0,1,0.1,1.3,0.3l0.2,0.1l0.3-0.6l-0.2-0.1
		c-0.4-0.2-1-0.4-1.6-0.4c-1,0-1.7,0.5-1.7,1.3c0,1,1,1.2,1.7,1.4l0,0c0.8,0.2,1.2,0.3,1.2,0.7c0,0.6-0.6,0.7-1.1,0.7
		c-0.6,0-1-0.1-1.5-0.4L146,5.8l-0.3,0.6l0.2,0.1c0.5,0.3,1.1,0.4,1.8,0.4c1.1,0,1.7-0.5,1.7-1.4C149.4,4.4,148.4,4.2,147.7,4.1"/>
	<polyline class="st0" points="60.7,20.5 54.4,11.7 52.9,11.7 52.9,27 55.9,26.9 55.9,18.6 60.1,24.4 61.3,24.4 65.5,18.5 
		65.5,26.9 68.5,26.9 68.5,11.7 66.9,11.7 	"/>
	<path class="st0" d="M77.2,11.6l-7.1,15.3l3.3,0l1.3-2.9l6.9,0l1.3,2.9l3.3,0l-7.3-15.2 M75.6,21.5l2.4-5.8l2.5,5.8L75.6,21.5z"/>
	<path class="st0" d="M100.6,26.8L97,21.9c2-0.8,3-2.5,3-4.9c0-3.5-2.2-5.4-6.2-5.4l-6.2,0l0.1,15.2l3,0l0-4.3l3.1,0l3,4.3
		 M93.4,19.9l-2.6,0l0-5.7l2.9,0c2.2,0,3.2,1,3.2,2.9C96.8,18.7,95.7,19.9,93.4,19.9"/>
	<polyline class="st0" points="110.2,20.3 103.8,11.5 102.3,11.5 102.4,26.8 105.4,26.7 105.4,18.4 109.6,24.2 110.7,24.2 
		114.9,18.3 115,26.7 118,26.7 117.9,11.5 116.4,11.5 	"/>
	<path class="st0" d="M128.3,11.1c-5,0-8.1,3.3-8,7.9c0,4.8,3.3,7.9,8.1,7.9c5,0,8.1-3.3,8.1-7.9C136.5,14.3,133.1,11.1,128.3,11.1
		 M128.4,24.1c-3,0-4.9-2.1-4.9-5c0-3.1,2-5.1,4.9-5.1c3,0,4.9,2.1,4.9,5.1C133.3,22.1,131.3,24.1,128.4,24.1"/>
	<polyline class="st0" points="141.9,23.9 141.9,11.4 138.8,11.4 138.9,26.6 150,26.6 150,23.8 	"/>
	<path class="st0" d="M92,34.7c-0.7-0.1-1-0.2-1-0.6c0-0.3,0.2-0.5,0.7-0.5c0.5,0,0.9,0.1,1.2,0.3l0.3-0.7c-0.4-0.2-1-0.3-1.6-0.3
		c-1.1,0-1.6,0.5-1.6,1.3c0,0.8,0.6,1.1,1.6,1.3c0.6,0.1,0.9,0.2,0.9,0.6c0,0.3-0.3,0.5-0.8,0.5c-0.5,0-1-0.1-1.5-0.4L90,37
		c0.6,0.3,1.1,0.4,1.8,0.4c1,0,1.6-0.5,1.6-1.3C93.5,35.2,92.9,34.9,92,34.7"/>
	<path class="st0" d="M96.3,36.2c-0.3,0-0.5,0.2-0.5,0.5c0,0.3,0.2,0.5,0.5,0.5c0.3,0,0.5-0.2,0.5-0.5
		C96.8,36.4,96.6,36.2,96.3,36.2"/>
	<path class="st0" d="M101.2,33l-2,4.3l0.9,0l0.4-0.8l1.9,0l0.4,0.8l0.9,0l-2-4.3 M100.7,35.7l0.7-1.6l0.7,1.6L100.7,35.7z"/>
	<path class="st0" d="M106.5,36.2c-0.3,0-0.5,0.2-0.5,0.5c0,0.3,0.2,0.5,0.5,0.5c0.3,0,0.5-0.2,0.5-0.5
		C107,36.4,106.8,36.2,106.5,36.2"/>
	<path class="st0" d="M111.5,34.7c-0.7-0.1-1-0.2-1-0.6c0-0.3,0.2-0.5,0.7-0.5c0.5,0,0.9,0.1,1.2,0.3l0.3-0.7
		c-0.4-0.2-1-0.3-1.6-0.3c-1.1,0-1.6,0.5-1.6,1.3c0,0.8,0.6,1.1,1.6,1.3c0.6,0.1,0.9,0.2,0.9,0.6c0,0.3-0.3,0.5-0.8,0.5
		c-0.5,0-1-0.1-1.5-0.4l-0.3,0.7c0.6,0.3,1.1,0.4,1.8,0.4c1,0,1.6-0.5,1.6-1.3C112.9,35.1,112.3,34.8,111.5,34.7"/>
</g>
</svg>
